<?xml version="1.0" encoding="utf-8"?>
<!-- Generator: Adobe Illustrator 17.0.0, SVG Export Plug-In . SVG Version: 6.00 Build 0)  -->
<!DOCTYPE svg PUBLIC "-//W3C//DTD SVG 1.1//EN" "http://www.w3.org/Graphics/SVG/1.1/DTD/svg11.dtd" [
	<!ENTITY ns_extend "http://ns.adobe.com/Extensibility/1.0/">
	<!ENTITY ns_ai "http://ns.adobe.com/AdobeIllustrator/10.0/">
	<!ENTITY ns_graphs "http://ns.adobe.com/Graphs/1.0/">
	<!ENTITY ns_vars "http://ns.adobe.com/Variables/1.0/">
	<!ENTITY ns_imrep "http://ns.adobe.com/ImageReplacement/1.0/">
	<!ENTITY ns_sfw "http://ns.adobe.com/SaveForWeb/1.0/">
	<!ENTITY ns_custom "http://ns.adobe.com/GenericCustomNamespace/1.0/">
	<!ENTITY ns_adobe_xpath "http://ns.adobe.com/XPath/1.0/">
]>
<svg version="1.1" id="Livello_1" xmlns:x="&ns_extend;" xmlns:i="&ns_ai;" xmlns:graph="&ns_graphs;"
	 xmlns="http://www.w3.org/2000/svg" xmlns:xlink="http://www.w3.org/1999/xlink" x="0px" y="0px" width="4074.1px" height="1400px"
	 viewBox="1467.1 0 4074.1 1400" enable-background="new 1467.1 0 4074.1 1400" xml:space="preserve">
<metadata><?xpacket begin="﻿" id="W5M0MpCehiHzreSzNTczkc9d"?>
<x:xmpmeta xmlns:x="adobe:ns:meta/" x:xmptk="Adobe XMP Core 5.5-c014 79.151739, 2013/04/03-12:12:15        ">
   <rdf:RDF xmlns:rdf="http://www.w3.org/1999/02/22-rdf-syntax-ns#">
      <rdf:Description rdf:about=""
            xmlns:xmp="http://ns.adobe.com/xap/1.0/"
            xmlns:xmpGImg="http://ns.adobe.com/xap/1.0/g/img/"
            xmlns:xmpTPg="http://ns.adobe.com/xap/1.0/t/pg/"
            xmlns:stDim="http://ns.adobe.com/xap/1.0/sType/Dimensions#"
            xmlns:xmpG="http://ns.adobe.com/xap/1.0/g/"
            xmlns:dc="http://purl.org/dc/elements/1.1/"
            xmlns:xmpMM="http://ns.adobe.com/xap/1.0/mm/"
            xmlns:stEvt="http://ns.adobe.com/xap/1.0/sType/ResourceEvent#">
         <xmp:CreatorTool>Adobe Illustrator CC (Macintosh)</xmp:CreatorTool>
         <xmp:CreateDate>2020-03-01T17:07:33+01:00</xmp:CreateDate>
         <xmp:MetadataDate>2020-03-01T17:07:33+01:00</xmp:MetadataDate>
         <xmp:ModifyDate>2020-03-01T17:07:33+01:00</xmp:ModifyDate>
         <xmp:Thumbnails>
            <rdf:Alt>
               <rdf:li rdf:parseType="Resource">
                  <xmpGImg:width>256</xmpGImg:width>
                  <xmpGImg:height>48</xmpGImg:height>
                  <xmpGImg:format>JPEG</xmpGImg:format>
                  <xmpGImg:image>/9j/4AAQSkZJRgABAgEASABIAAD/7QAsUGhvdG9zaG9wIDMuMAA4QklNA+0AAAAAABAASAAAAAEA&#xA;AQBIAAAAAQAB/+4ADkFkb2JlAGTAAAAAAf/bAIQABgQEBAUEBgUFBgkGBQYJCwgGBggLDAoKCwoK&#xA;DBAMDAwMDAwQDA4PEA8ODBMTFBQTExwbGxscHx8fHx8fHx8fHwEHBwcNDA0YEBAYGhURFRofHx8f&#xA;Hx8fHx8fHx8fHx8fHx8fHx8fHx8fHx8fHx8fHx8fHx8fHx8fHx8fHx8fHx8f/8AAEQgAMAEAAwER&#xA;AAIRAQMRAf/EAaIAAAAHAQEBAQEAAAAAAAAAAAQFAwIGAQAHCAkKCwEAAgIDAQEBAQEAAAAAAAAA&#xA;AQACAwQFBgcICQoLEAACAQMDAgQCBgcDBAIGAnMBAgMRBAAFIRIxQVEGE2EicYEUMpGhBxWxQiPB&#xA;UtHhMxZi8CRygvElQzRTkqKyY3PCNUQnk6OzNhdUZHTD0uIIJoMJChgZhJRFRqS0VtNVKBry4/PE&#xA;1OT0ZXWFlaW1xdXl9WZ2hpamtsbW5vY3R1dnd4eXp7fH1+f3OEhYaHiImKi4yNjo+Ck5SVlpeYmZ&#xA;qbnJ2en5KjpKWmp6ipqqusra6voRAAICAQIDBQUEBQYECAMDbQEAAhEDBCESMUEFURNhIgZxgZEy&#xA;obHwFMHR4SNCFVJicvEzJDRDghaSUyWiY7LCB3PSNeJEgxdUkwgJChgZJjZFGidkdFU38qOzwygp&#xA;0+PzhJSktMTU5PRldYWVpbXF1eX1RlZmdoaWprbG1ub2R1dnd4eXp7fH1+f3OEhYaHiImKi4yNjo&#xA;+DlJWWl5iZmpucnZ6fkqOkpaanqKmqq6ytrq+v/aAAwDAQACEQMRAD8Ah/5E/lZr35n6Tql/P5z1&#xA;LSzp06QLGjSTBw6c61M0dMVen/8AQpGq/wDlx9V/5Fv/ANlGKsj/AC9/5x21Dyh5w0/zFL511DV4&#xA;7H1uWn3CMI5PVgeH4iZpPs+pyHw9Rir2fFXYq8j1f8vvzZufzzs/NVp5k9HyTCIuelCeYUjSHjLC&#xA;bYL6T+rLVuZNRX/JGKvXMVdirsVdirsVdirsVdir5k/MH8xPzI/Mr8y7v8tPy4vDpOm6Yzpq+rxu&#xA;0TsYWCTu0yfGkaSH01VN3PU0OyqLi/5wp8tzQGTVPNGo3WpuKy3SpEqFqdeD+q5+l8VY3q//ACtv&#xA;/nHfVLC7bV380eQruYQSQz86IT8RjCOz+hKVDFCjlWp8Q7Yq+qdH1ax1jSbLVrCT1bHUII7m1lpT&#xA;lFMgdDQ9NjiqLxV2KuxV2KuxV2KuxV2KuxV2KuxV2KuxV2Kvmv8A5wh/5RbzL/zHQ/8AJnFX0pir&#xA;sVeDfnJ+e+tfl9+bWkaTIY28sSaUb++txGGnlm5XSpHHJ+zzeGNR2xVR8sar/wA5W695g0jW720s&#xA;9G8q3N3bveaQVtxMLB5U9Un1Q84cQ8urK3+SNhiqc6j+aXmyD/nJbS/y+jkh/wAO3dq000ZiBl5i&#xA;ymn2krUfHEuKsz/Nf80tB/Ljyy2s6mrXE8rejp9hGQJJ5qVoCa8VUbs3b3JAKrxzSfMn/OXPnq1X&#xA;XNEisPLWj3H72xiuI4VMsXVaC4S4lIYftEKG6rtiqK0T8+/zH8k+abTy1+culRWtrfHja+YLZQqd&#xA;ac3MZaGRAWHLhxZOpBxV7f52856L5O8rX3mTV3IsLJA3GOheR3IWOOMEgFnZgB952xV4Fo3n/wD5&#xA;yh/MyF9X8nWdj5a8uuzLZ3Fwsblwp/nuEmaShHHmkSrX3BxVs/nf+dH5aeYLOx/NnS4L3Q75wqav&#xA;ZoisBUcmjaGkb8AamNkVj291X0tbzw3EEdxA6ywTKskUimqsjCqsCOoIOKr8VfIX5Yea9N/Kb8+P&#xA;OGj+cCbG01eeRYNTlUkKGnaa3kdgCRHNHJu3Y0rShoq+tbDUdP1G1S70+5ivLSUViuLd1ljYHequ&#xA;hKnFUu82+T/Lnm7RZNE8xWYvtMmZJJLcvJFVo25KQ8TRuKHwbFV+n2Hl7yj5ZS0tgunaDo1uxX1J&#xA;HdIbeIFmLSSs7UUV3JxV8/yfnr+cH5j+YLzTvyj0eGHRbJwsmtXqKWI3o7GYiKMPT4Y+LPTf2Cqz&#xA;V/PP/OUv5bQrrHm20sfM/l6Ej69PbrEpjUnqWt0gaPrTm0TL44q92/L/AM+aF568r2vmLRnY21xV&#xA;ZYZKCSGZPtxSAE/Ev4ih6HFXjPmX8+fzE82ecr3yf+T+lRXZ09mS9124CtGCjcGdOZWFIwwopbkX&#xA;/ZXFUDrWvf8AOXnkixl1/Vjp3mHSrYGa9ghihb0YurErAlrNxQDqvKnU7Yq9m/Kj8zdI/MXyjDr+&#xA;nxtbyq5t7+ychmguEAZk5CnJSGDK1NwegNRirw1/+clPzDg8+ecPKlnp8et6rFqVzpnlPTooSPih&#xA;uZEMk7KQWWOKOp3HjUCpCr0n8pY/+chh5kuJfzIltG0OWzdreC3Fryiu/Ui4KTCAxHp+p+0w9+mK&#xA;vPPL/wDzlH5gt4fMtvqtquteYF1NdN8q6PaR+m8pLSKzScOTMq8U6CpJAHWoVTG4P/OaFzB+mIm0&#xA;yzG7jQEW0L0pULWRZPl/f18cVZB+Sn/OQN35r1ufyZ5y08aN5ztOYWMK0cc5hFZE9NyWjlUDkVqQ&#xA;RUinTFWdfmt+Z2jflz5Tl17UUNzKziCwsUYK887AlU5GvFQFJZqGg7E0BVeOaTr/APzl354sY9c0&#xA;ddO8t6Vcj1bKKWOENLF+yQs6XUtGH7TBa9RtTFUT5X/Pn8x/Knnez8m/m9pkNt+kXVLPWoAqLWRu&#xA;COxjLQvEXoCV4lP2hiryn/nHv8mLz8wNG1a8g80XmgCyuI4WhtVZlkLJy5NSWLcdMVesf9Ckar/5&#xA;cfVf+Rb/APZRirNPyo/I298heYrjWJ/Nl7ryT2b2gs7pWVFLyxyeoCZZdx6XHp3xV5x+dGnWmo/8&#xA;5W+QLS7QSW7Wdk7xncN6d7dyKCD1FVFcVfTuKvmvWf8A1trQv+YF/wDumXOKoH85LQec/wDnJ/yf&#xA;5QvQZdJs4YpJbVt0cfvLu42HaSOFUb5Yq+oVVVUKoCqooqjYADsMVYl+Zv5X+WfzG0GLRteM8UUE&#xA;63Nvc2jIk8bqCp4tIkq8WVqMOP6hiqn5k/LXyfq/kSy8r+ZJJrvQtIjhJuLi4MMhFpEY1knli9IH&#xA;4d26Cu+KsVP/ADkR+Q3la0ttDs9cR7bToktYIrKC4uIkjhUIirKiGNtl6hjiryL/AJyG/P78tvPf&#xA;kH9BaJ9am1EXcNzDJNb+mienyVjyZq1KuRsMVfR/5UEn8rfJxJqToemkk9a/VI8VZVirEPzC/Kfy&#xA;N5/tEh8x6eJriFSttfxExXMQJrRJB1X/ACWBX2xV4ref84fato9w955F873elz9Y0mDxPt05XNq8&#xA;Z2/4xYqlF1+ZP/ORH5N39qnnuNfMnlqaQRC9qJAepKx3aqkiyEAkLOprTYdTirNv+ckfzAs9Q/5x&#xA;+i1fQ5ybDzRNa28Uh+F/SflO6ECtG/0co4+YxVn35GeV7Ly3+VPlyyto1R7mzivrxx1e4u0E0jMe&#xA;9OXEewAxVm93aW15azWl1Gs1tcRtFPC4qrxuCrKw8CDTFWGflj+UPl38udO1HTtDvL+e01KUTyR3&#xA;ksb+m4XgTEYo4StVpUmp2GKsXsdb/wCcfvySW+0m21KHTbq6dZbyzV57655qtEV1QTPHsdg1BvXv&#xA;iqEvv+ct/wAlljkj+sXl5GykMiWb8XDChWkvD8cVYh/zhLIjaf5xSEsLYXdq0KN2DLN+NAMVUvyA&#xA;0y1n/wCcj/zN1CRQ09nd6kkBIrxM+otyYeBolPkTir6fxV8n/wDOKvleyv8A81/OvmG4jWSbRZXh&#xA;tOW/CS9nmBkX39OBl+THFX1hir5c/wCcqbSLyt+ZHkbz9YUgvjNwvJF+Hn9RkidC9OvKOVkb/JAG&#xA;Kvb/AMzvIn5d+Z9Ptb3zyEGm6KzzpLNctbQIZOIYyMGRSPhA+L+OKsZv/wDnKb8kbF2hTW3ujGKU&#xA;trS5Zaj9lWMaofoNMVeCf85MfnP5E/MLTtDh8ufWHvNNnlkkuJ4fSCxyqBxVixavJATtir0H/nCH&#xA;/lFvMv8AzHQ/8mcVfSmKuxV81/mx/wCtcfl9/wAwNr/1E3mKvpTFXzXrP/rbWhf8wL/90y5xVBfn&#xA;rcHyP/zkV5N8/XSsNHuI44bqcAnj6ZeC46fywTq1O+Kvp63uILiCO4t5FlgmVZIpUIZWRhVWUjYg&#xA;g7Yqwn82/wA29C/LTQrfU9Sia7nu5xBa2ELqsslAWdxy/ZQUqfcDvirx/wD5yy836xd/l15Pii9T&#xA;SrLzK4udStXJ5KBFHJHDMVpUIZSWXpyX2xV7B5M/Jn8s/LOk21rp2h2Vy6IpfUbmGO4uJmp/eGVw&#xA;x+LrRaKOwxV5j/zl9e+V9I/La10OCG3t9S1G8je1toURGEMPJ5ZKKBReRC/M4q9d/Kf/AMlZ5N/7&#xA;Yem/9QceKsol9X0n9Lj6vE+nyrx5U2rTelcVeLfkR+fGq+ddZ1ny15vgs9K8zadIRb2dskkIkWMl&#xA;J04zSzEyROu4B6HpscVe14q8j/5yl1vQNP8Ayf1az1Nka61P0oNMtiR6jzrKj80HX90F5Mfo74q8&#xA;q1LyTq91/wA4YaWGid7jTpTrccFN1tnuZjyFf2fQuDLXwxV7X/zj9500/wA1flXoUtvKrXmmWsWn&#xA;ajCCC6TWqCKrAdPUVQ49jirPdS1Kx0zT7nUb+Zbeys4nnuZ3NFSONSzMfkBirybSPz1k84/lX5z8&#xA;16DpVzpzaFaXIs5rhkfnOlu0vIBK/wB1VWYYqwb/AJxT/LDyPrvlO584a9Zw69rtzfTRu18BcLDw&#xA;4t/dyclMjluZdhXcUpvVV7zq1t5I8q6He6zdafY2Gn6dA0s8iQRJSOMVCiiitdgq9zQYq8G/5wmm&#xA;9ez85z8ePq3Vo/EdByWc0xVX/wCcef8Ayfv5r/8AMdef91GXFX0pir5E/wCcYfOun6N+b/mzy/ey&#xA;rAPMM8gtHcgBrm1nlKRVPd0mfj4kU6kYq+u8VfLP/OSd/F54/NzyZ+XelEXM9nPXUuFHCNdPGXVx&#xA;/wAU28Jkb2bFUV/zlLNca3+ZnkTyNfXrWXlzUZIZLwq3FS89z6DOxPw8kjX4K9ORxV7loP5Vflxo&#xA;NpHbaX5b0+FY14iVreOWZu1XmkDSOf8AWbFXz3/zmlqXly3tvLnl2xSCPUoXlu54IFRTFAUEcfML&#xA;SnM14j2xVEeVf+cbPz38p289v5c87WWmQXLiSeOBpwHdRQE1hPbFU8/5VH/zlH/5cmD/AIOb/qhi&#xA;rI/y9/Lr8+tH84afqPmrzvFq+gwet9c05GlJk5wOkdA0SD4ZGVuvbFUf50/KDW9e/O3yx5/tr22i&#xA;03Q7eGC4tZPU9d2ilnkJSilKUnHVsVesYq8nv/yg1u5/5yC078y1vbYaVZW7QSWZ9T6wWNpNb1Hw&#xA;8KcpQftdMVZl+Yf5eeXPPvlubQddiLQOfUt7iOgmgmAIWWJiDRhUjfYjY4q8Q078l/8AnJPyUh03&#xA;yP54tJtDUkW0N4N41Jr8MM8F3HGP9R8VTbyr/wA41a5qPmeDzV+bHmH/ABPqNqQbfToi7Wo4Hkod&#xA;pFjrGGNfSWNVr1qCRir0781fyw0T8xvKz6Fqbtbukgnsb6MBngnUFQwU05KQxDLXceBoQq8d0f8A&#xA;Kf8A5yp8sW8eh+XvO+nnQ4vgtnuP3rRxgUCgT2tw6AfsqjkDFUbrH/OLuq6p5T1Z9V8wfpzz/q/1&#xA;dW1vUDJ6FvDFMsrwwKPUYA8aVp7AKK1Ve2+StEuNB8naDodzIktxpWnWljNLHXgz20CRMy8gDxJT&#xA;aoxVOcVeM/m1/wA42aP5y1j/ABPoGoP5d81gq73cQJimkQfC7hCjxyCg/eIfmCcVYpD5D/5zF0+F&#xA;rG186WFxbKOCTysk0jLTr6lxZtLX35fTiqt5d/5xc1/WfMEPmD82PMreYp4KcdOheV4mANQjTSiM&#xA;rHXrHHGtfHFX0N9Utfqv1P0Y/qnp+j9X4j0/Tpx4cKcePHamKvnrVf8AnGfzh5Z8w3Ou/lF5nGh/&#xA;WjWTS7suIlWvLgHVJ1kQH7KyRmn82Koa8/Iz/nIDzwY7P8xfPECaHyUzWdgKmTiajlFFDaQnpszF&#xA;qHemKvdfLPkfy15b8qxeVtMs1XRo4mheB6OZRICJGlP7bSVPI/wxV4XJ/wA46/mp5I1q8v8A8pPN&#xA;cdjp143JtMvifhBOy0eO5hm4Do7qrU/FVOtJ/Ir8x/NGpWt7+cHmwa3YWcizR+X7AenaSum6mfjH&#xA;bIadCBHU/wA2Kp/+Qn5Pa1+W48xDU7y1uxrFxFNbi19SiLH6lQ3NU/34OmKt/lf+UGt+UfzK86ea&#xA;729triz8y3E89pBD6nqxrNdPOBJyVVqFemxO+KvWMVfHP5K/lhoX5h3P5m6XqLyWl1balaXGmanB&#xA;/fW04lvgHXpVT+0td/YgEKs6uPy0/wCctIIf0PZefrOfSvsJeyMUuglKVeU2sk4b/Vlb54qzL8l/&#xA;+cftK/L+4n1zUb1tb82XisJ9RcEJEJDykEQYsxZz9qRjU+1SCqmf51fktpH5m6Nbwy3B0/WdPLPp&#xA;uoqvMLzpzilWqlkbiOhqCKjuCq860/8ALj/nLiziXR4vPdgNLjXgt3JSef0+g/eS2jT8qf5f+yxV&#xA;b5v/AOcTbrUfKcVrY62uoebLm+W91vzDqplLzqsTxrGgX1mVQXruTXuegCr6OxV2KuxV2KuxV2Ku&#xA;xV2KuxV2KuxV2KuxV2KuxV2KuxV2KuxV2KuxV2KuxV2KuxV2KvHvyE/KfzR5E1vzpe629s0Ov3ME&#xA;1j9WkaRgsUlyzeoGROJpOvSvfFXsOKuxV2KuxV2Kv//Z</xmpGImg:image>
               </rdf:li>
            </rdf:Alt>
         </xmp:Thumbnails>
         <xmpTPg:MaxPageSize rdf:parseType="Resource">
            <stDim:w>4074.099609</stDim:w>
            <stDim:h>1400.000000</stDim:h>
            <stDim:unit>Pixels</stDim:unit>
         </xmpTPg:MaxPageSize>
         <xmpTPg:NPages>1</xmpTPg:NPages>
         <xmpTPg:HasVisibleTransparency>False</xmpTPg:HasVisibleTransparency>
         <xmpTPg:HasVisibleOverprint>False</xmpTPg:HasVisibleOverprint>
         <xmpTPg:PlateNames>
            <rdf:Seq>
               <rdf:li>Cyan</rdf:li>
               <rdf:li>Magenta</rdf:li>
               <rdf:li>Yellow</rdf:li>
               <rdf:li>Black</rdf:li>
            </rdf:Seq>
         </xmpTPg:PlateNames>
         <xmpTPg:SwatchGroups>
            <rdf:Seq>
               <rdf:li rdf:parseType="Resource">
                  <xmpG:groupName>Gruppo campioni predefinito</xmpG:groupName>
                  <xmpG:groupType>0</xmpG:groupType>
               </rdf:li>
            </rdf:Seq>
         </xmpTPg:SwatchGroups>
         <dc:format>image/svg+xml</dc:format>
         <xmpMM:DocumentID>xmp.did:c51a2f66-2ce3-4f23-ba72-f524ae56d523</xmpMM:DocumentID>
         <xmpMM:InstanceID>xmp.iid:c51a2f66-2ce3-4f23-ba72-f524ae56d523</xmpMM:InstanceID>
         <xmpMM:OriginalDocumentID>xmp.did:c51a2f66-2ce3-4f23-ba72-f524ae56d523</xmpMM:OriginalDocumentID>
         <xmpMM:History>
            <rdf:Seq>
               <rdf:li rdf:parseType="Resource">
                  <stEvt:action>saved</stEvt:action>
                  <stEvt:instanceID>xmp.iid:c51a2f66-2ce3-4f23-ba72-f524ae56d523</stEvt:instanceID>
                  <stEvt:when>2020-03-01T17:07:33+01:00</stEvt:when>
                  <stEvt:softwareAgent>Adobe Illustrator CC (Macintosh)</stEvt:softwareAgent>
                  <stEvt:changed>/</stEvt:changed>
               </rdf:li>
            </rdf:Seq>
         </xmpMM:History>
      </rdf:Description>
   </rdf:RDF>
</x:xmpmeta>
                                                                                                    
                                                                                                    
                                                                                                    
                                                                                                    
                                                                                                    
                                                                                                    
                                                                                                    
                                                                                                    
                                                                                                    
                                                                                                    
                                                                                                    
                                                                                                    
                                                                                                    
                                                                                                    
                                                                                                    
                                                                                                    
                                                                                                    
                                                                                                    
                                                                                                    
                                                                                                    
                           
<?xpacket end="w"?>
	</metadata>
<title>pastel-colored-gradients-3d-geometric-triangle-hexagon-cube</title>
<g enable-background="new    ">
	<path d="M1869.061,987.046h-336.407v-557.33h336.407v47.893h-283.879v200.453h269.589v47.12h-269.589v213.972h283.879V987.046z"/>
	<path d="M1950.942,585.366h48.279v71.453h1.159c14.677-49.052,52.141-78.02,101.579-78.02c13.518,0,25.491,2.704,31.671,4.249
		v50.21c-6.566-3.09-20.856-5.793-38.237-5.793c-57.162,0-93.468,44.416-93.468,109.303v250.277h-50.982L1950.942,585.366
		L1950.942,585.366z"/>
	<path d="M2183.452,467.952c0-18.926,15.449-33.988,33.988-33.988c18.925,0,34.375,15.062,34.375,33.988
		s-15.449,33.988-34.375,33.988C2198.902,501.94,2183.452,486.878,2183.452,467.952z M2191.949,585.366h50.982v401.68h-50.982
		V585.366z"/>
	<path d="M2611.01,712.437c-10.814-49.438-51.369-88.447-114.711-88.447c-78.404,0-129.773,62.955-129.773,162.217
		c0,100.807,51.756,162.217,130.16,162.217c60.639,0,102.738-33.602,114.324-85.743h50.596
		c-11.199,76.86-76.473,130.933-165.307,130.933c-109.689,0-181.914-78.791-181.914-207.406
		c0-126.684,72.225-207.406,181.529-207.406c94.625,0,155.264,61.797,165.307,133.637h-50.211V712.437z"/>
	<path d="M2711.045,875.812c0-68.749,51.367-110.462,144.062-116.642l125.139-7.725v-34.761c0-57.935-36.691-92.695-99.26-92.695
		c-59.094,0-96.945,28.967-105.828,77.633h-49.438c5.793-71.84,64.887-122.822,156.424-122.822s149.084,51.369,149.084,133.25
		v274.996h-48.664v-76.474h-1.158c-22.402,49.823-77.246,83.04-137.113,83.04C2765.117,993.612,2711.045,946.105,2711.045,875.812z
		 M2980.246,836.03v-44.417l-118.959,8.11c-63.342,4.249-98.488,31.672-98.488,76.088c0,43.645,37.465,73.77,91.924,73.77
		C2925.015,949.581,2980.246,899.758,2980.246,836.03z"/>
	<path d="M3312.404,838.347c6.566,66.818,68.75,109.689,156.037,109.689c83.812,0,143.678-44.416,143.678-107.758
		c0-52.527-34.76-84.198-120.504-103.896l-60.639-13.518c-110.848-24.719-157.195-72.225-157.195-149.085
		c0-89.991,81.109-152.947,190.412-152.947c108.531,0,188.48,64.501,191.57,154.106h-52.914
		c-5.406-63.729-60.639-106.214-139.814-106.214c-75.316,0-135.182,39.396-135.182,102.737c0,50.596,34.375,82.653,117.027,101.192
		l60.639,13.904c114.711,25.878,160.672,69.521,160.672,146.768c0,98.875-79.562,162.603-200.453,162.603
		c-118.959,0-200.453-63.342-206.248-157.582h52.914V838.347z"/>
	<path d="M4011.48,712.437c-10.814-49.438-51.367-88.447-114.709-88.447c-78.406,0-129.773,62.955-129.773,162.217
		c0,100.807,51.754,162.217,130.158,162.217c60.639,0,102.738-33.602,114.324-85.743h50.598
		c-11.201,76.86-76.475,130.933-165.307,130.933c-109.689,0-181.916-78.791-181.916-207.406
		c0-126.684,72.227-207.406,181.529-207.406c94.627,0,155.264,61.797,165.307,133.637h-50.211V712.437z"/>
	<path d="M4111.516,875.812c0-68.749,51.367-110.462,144.062-116.642l125.139-7.725v-34.761c0-57.935-36.691-92.695-99.26-92.695
		c-59.094,0-96.945,28.967-105.828,77.633h-49.438c5.793-71.84,64.887-122.822,156.424-122.822s149.084,51.369,149.084,133.25
		v274.996h-48.664v-76.474h-1.158c-22.402,49.823-77.246,83.04-137.113,83.04C4165.588,993.612,4111.516,946.105,4111.516,875.812z
		 M4380.717,836.03v-44.417l-118.959,8.11c-63.342,4.249-98.488,31.672-98.488,76.088c0,43.645,37.465,73.77,91.924,73.77
		C4325.486,949.581,4380.717,899.758,4380.717,836.03z"/>
	<path d="M4517.443,585.366h48.279v71.453h1.158c14.678-49.052,52.143-78.02,101.58-78.02c13.518,0,25.49,2.704,31.67,4.249v50.21
		c-6.566-3.09-20.855-5.793-38.236-5.793c-57.162,0-93.469,44.416-93.469,109.303v250.277h-50.982V585.366z"/>
	<path d="M5114.17,786.206c0,125.139-69.135,207.406-169.941,207.406c-64.887,0-115.482-37.078-136.727-89.22h-1.545v215.517
		h-50.982V585.366h48.279v84.971h1.545c22.016-53.3,72.998-91.537,138.271-91.537C5044.648,578.8,5114.17,661.454,5114.17,786.206z
		 M5062.029,786.206c0-97.717-50.211-162.217-127.844-162.217c-76.086,0-128.229,65.659-128.229,162.217
		c0,96.943,52.143,162.217,128.229,162.217C5011.818,948.423,5062.029,884.309,5062.029,786.206z"/>
	<path d="M5168.242,875.812c0-68.749,51.367-110.462,144.062-116.642l125.139-7.725v-34.761c0-57.935-36.691-92.695-99.26-92.695
		c-59.094,0-96.945,28.967-105.828,77.633h-49.438c5.793-71.84,64.887-122.822,156.424-122.822s149.084,51.369,149.084,133.25
		v274.996h-48.664v-76.474h-1.158c-22.402,49.823-77.246,83.04-137.113,83.04C5222.314,993.612,5168.242,946.105,5168.242,875.812z
		 M5437.443,836.03v-44.417l-118.959,8.11c-63.342,4.249-98.488,31.672-98.488,76.088c0,43.645,37.465,73.77,91.924,73.77
		C5382.213,949.581,5437.443,899.758,5437.443,836.03z"/>
</g>
</svg>
